PathFileType	4	(X/Y/Z)	C:\Users\u0088756\Documents\documenten\software\SoftwareProjects\DC_TrackingSimulation\Data\Patient20\InputData\MarkerFile_DataSel.trc
DataRate	CameraRate	NumFrames	NumMarkers	Units	OrigDataRate	OrigDataStartFrame	OrigNumFrames
200.000000	200.000000	9	47	m	200.000000	1	230
Frame#	Times		C7		CLAV		LSHO		LUA1		LELB		LLA1		LWRA		LWRB		LFIN		RSHO		RUA1		RELB		RLA1		RWRA		RWRB		RFIN		LASI		RASI		RPSI		LPSI		LTHI		LTHI3		LKNE		LKNEmed		LTIB		LTIB2		LTIB3		LANKmed		LHEE		LTOE		LLatFoot		RTHI		RTHI2		RTHI3		RKNE		RKNEmed		RTIB		RTIB2		RTIB3		RANK		RHEE		RTOE		RLatFoot		Unlabeled50		Unlabeled51		Unlabeled52		*52
			X1	Y1	Z1	X2	Y2	Z2	X3	Y3	Z3	X4	Y4	Z4	X5	Y5	Z5	X6	Y6	Z6	X7	Y7	Z7	X8	Y8	Z8	X9	Y9	Z9	X10	Y10	Z10	X11	Y11	Z11	X12	Y12	Z12	X13	Y13	Z13	X14	Y14	Z14	X15	Y15	Z15	X16	Y16	Z16	X17	Y17	Z17	X18	Y18	Z18	X19	Y19	Z19	X20	Y20	Z20	X21	Y21	Z21	X22	Y22	Z22	X23	Y23	Z23	X24	Y24	Z24	X25	Y25	Z25	X26	Y26	Z26	X27	Y27	Z27	X28	Y28	Z28	X29	Y29	Z29	X30	Y30	Z30	X31	Y31	Z31	X32	Y32	Z32	X33	Y33	Z33	X34	Y34	Z34	X35	Y35	Z35	X36	Y36	Z36	X37	Y37	Z37	X38	Y38	Z38	X39	Y39	Z39	X40	Y40	Z40	X41	Y41	Z41	X42	Y42	Z42	X43	Y43	Z43	X44	Y44	Z44	X45	Y45	Z45	X46	Y46	Z46	X47	Y47	Z47

1	0	0.22075	1.3837	0.046964	0.34087	1.3098	0.02062	0.2625	1.3338	-0.15241	0.16104	1.2035	-0.18264	0.13984	1.0828	-0.21513	0.14264	0.98066	-0.26434	0.18452	0.85312	-0.27589	0.1138	0.86028	-0.28519	0.15048	0.81542	-0.32285	0.28301	1.3248	0.21772	0.29358	1.1712	0.27097	0.33331	1.0317	0.29064	0.42991	0.95118	0.29409	0.51212	0.87427	0.22693	0.47372	0.84007	0.27649	0.55013	0.83022	0.26361	0.3445	0.89719	-0.093786	0.35428	0.89342	0.11384	0.15967	0.93476	0.058138	0.15727	0.93186	-0.013861	0.35032	0.62075	-0.16428	0.34031	0.57675	-0.1564	0.41219	0.46725	-0.13146	0.4005	0.45256	-0.0044015	0.46547	0.41443	-0.12763	0.39625	0.38401	-0.14405	0.44806	0.36346	-0.15156	0.56666	0.13111	-0.044703	0.51913	0.041321	-0.072606	0.68098	0.14007	-0.058854	0.63967	0.07744	-0.13844	0.25807	0.6151	0.17023	0.20231	0.62627	0.1924	0.21442	0.57633	0.17546	0.1548	0.44919	0.15496	0.16584	0.44818	0.027834	0.10865	0.29537	0.16923	0.057763	0.31533	0.17178	0.063442	0.26144	0.16828	0.013148	0.102	0.1321	-0.068136	0.064907	0.079517	0.1174	0.049789	0.063237	0.054075	0.033923	0.14658	0.30707	0.03196	-0.54826	-0.31902	0.024537	-0.53468	-0.27353	0.02575	0.53964	0.23438	0.033699	0.53842
2	0.005	0.22652	1.3829	0.046083	0.34667	1.3089	0.019734	0.26848	1.3325	-0.15347	0.16683	1.2025	-0.18359	0.14533	1.0821	-0.21629	0.14726	0.98005	-0.2656	0.18798	0.85212	-0.27728	0.11715	0.86007	-0.28672	0.1534	0.81467	-0.32436	0.28872	1.3242	0.21674	0.29937	1.1703	0.26983	0.33924	1.0309	0.28948	0.43633	0.95087	0.29291	0.51926	0.87488	0.22572	0.4809	0.84012	0.27491	0.55745	0.83099	0.26232	0.35088	0.89636	-0.094085	0.36011	0.89268	0.11364	0.1647	0.93354	0.058157	0.16328	0.93093	-0.014595	0.35765	0.62046	-0.16435	0.34773	0.5764	-0.15635	0.41954	0.46694	-0.13083	0.4077	0.45256	-0.0037824	0.47232	0.41347	-0.12702	0.40285	0.38365	-0.1434	0.45444	0.36268	-0.15104	0.57075	0.12913	-0.044203	0.52213	0.040708	-0.072469	0.68515	0.13711	-0.058	0.64323	0.075353	-0.13792	0.26326	0.61424	0.16967	0.20803	0.62611	0.19198	0.2198	0.57555	0.17509	0.15942	0.44876	0.15469	0.17069	0.44739	0.027604	0.11182	0.29536	0.16907	0.061178	0.31587	0.1717	0.066304	0.26193	0.16825	0.014509	0.10298	0.1322	-0.067513	0.066596	0.079774	0.11785	0.049813	0.063488	0.05447	0.034169	0.14667	0.31251	0.031961	-0.54824	-0.3136	0.024497	-0.5347	-0.26805	0.025741	0.53962	0.23987	0.033814	0.53847
3	0.01	0.23227	1.382	0.045327	0.35252	1.3081	0.018845	0.27417	1.3314	-0.1545	0.17269	1.2016	-0.1846	0.1509	1.0814	-0.21756	0.15197	0.97943	-0.26692	0.19125	0.85109	-0.27883	0.12068	0.85988	-0.28829	0.15658	0.81401	-0.3259	0.29452	1.3236	0.21575	0.30518	1.1696	0.26864	0.34507	1.0301	0.28831	0.44263	0.95057	0.29173	0.52626	0.87551	0.22454	0.48791	0.84019	0.27334	0.56459	0.83173	0.26106	0.35732	0.89558	-0.094392	0.36579	0.89197	0.11355	0.1701	0.93232	0.057541	0.16941	0.93002	-0.015455	0.36517	0.62023	-0.16442	0.35535	0.57614	-0.15628	0.427	0.46652	-0.13005	0.4152	0.45271	-0.0030218	0.4791	0.41247	-0.12636	0.40939	0.38331	-0.14275	0.46076	0.36186	-0.15044	0.57481	0.12739	-0.043765	0.52351	0.04145	-0.07233	0.68883	0.13339	-0.057331	0.6454	0.072986	-0.13773	0.26856	0.61343	0.16917	0.21341	0.62503	0.19175	0.22518	0.57478	0.17477	0.16419	0.44827	0.15438	0.17569	0.44652	0.027366	0.11513	0.29541	0.16891	0.064738	0.31647	0.17164	0.06923	0.26248	0.16816	0.015289	0.10401	0.13277	-0.066891	0.068396	0.08005	0.11835	0.049775	0.063721	0.054766	0.034442	0.14689	0.31798	0.031991	-0.5482	-0.30813	0.024512	-0.53467	-0.2626	0.025729	0.53962	0.24533	0.033701	0.53838
4	0.015	0.23808	1.3812	0.04422	0.35838	1.3074	0.017874	0.27989	1.3305	-0.15554	0.17855	1.2007	-0.18562	0.1565	1.0807	-0.2188	0.15684	0.97893	-0.26828	0.19499	0.85016	-0.28018	0.12449	0.85978	-0.28995	0.15996	0.81335	-0.32746	0.30025	1.323	0.21465	0.31095	1.1689	0.2675	0.35086	1.0294	0.28715	0.44884	0.95034	0.29056	0.53314	0.87613	0.22334	0.4948	0.84027	0.27183	0.57161	0.83247	0.25983	0.36382	0.89481	-0.094751	0.37164	0.89131	0.11332	0.176	0.93137	0.056634	0.17561	0.9291	-0.016314	0.37277	0.62007	-0.16458	0.3631	0.57595	-0.15644	0.43444	0.46601	-0.12926	0.42305	0.45293	-0.0021604	0.48586	0.41125	-0.1255	0.41581	0.38299	-0.14212	0.46697	0.36094	-0.14977	0.57801	0.12563	-0.043324	0.52466	0.041736	-0.072301	0.6922	0.12925	-0.056783	0.64741	0.069974	-0.13749	0.27293	0.61273	0.16856	0.21864	0.62445	0.19126	0.23062	0.57408	0.17442	0.16888	0.44774	0.15405	0.18081	0.44575	0.027087	0.11866	0.29545	0.16873	0.068422	0.31711	0.1716	0.072302	0.26307	0.16814	0.016308	0.1051	0.13306	-0.065986	0.070453	0.080323	0.11894	0.049809	0.063962	0.05511	0.034738	0.14711	0.32336	0.03204	-0.54824	-0.30264	0.024487	-0.5347	-0.25715	0.025731	0.53963	0.25073	0.033646	0.53824
5	0.02	0.24389	1.3804	0.043126	0.36428	1.3067	0.016905	0.28584	1.3295	-0.15663	0.18438	1.1997	-0.18667	0.16205	1.0801	-0.2201	0.16171	0.97835	-0.2696	0.19891	0.84916	-0.28154	0.12849	0.85979	-0.29178	0.16362	0.81271	-0.329	0.30605	1.3226	0.21352	0.31673	1.1683	0.26634	0.35658	1.0288	0.28596	0.45482	0.94996	0.28937	0.53989	0.87673	0.22218	0.5016	0.84039	0.27034	0.57854	0.8332	0.25862	0.37041	0.89416	-0.0951	0.37765	0.89076	0.11295	0.18215	0.92998	0.056109	0.18191	0.92833	-0.017289	0.38055	0.62	-0.16472	0.37103	0.57581	-0.1566	0.44244	0.46566	-0.12905	0.43114	0.45313	-0.0012654	0.49248	0.40997	-0.12467	0.42211	0.38269	-0.14144	0.47298	0.35999	-0.14905	0.58097	0.12337	-0.04284	0.52637	0.041734	-0.071946	0.6959	0.12479	-0.056252	0.64954	0.066809	-0.13718	0.27842	0.61203	0.16816	0.22472	0.62357	0.19102	0.23614	0.57341	0.17406	0.17434	0.44734	0.1536	0.18608	0.44505	0.026716	0.12222	0.29558	0.16863	0.072297	0.31776	0.17152	0.075501	0.26371	0.16813	0.017506	0.10627	0.13344	-0.06516	0.07258	0.080634	0.1195	0.049762	0.064238	0.055529	0.035101	0.14729	0.32889	0.031846	-0.54838	-0.29722	0.024505	-0.53473	-0.25171	0.025739	0.53965	0.2562	0.0336	0.53828
6	0.025	0.24965	1.3797	0.041926	0.37029	1.3061	0.015824	0.29168	1.3285	-0.15776	0.19019	1.1989	-0.18773	0.16763	1.0795	-0.22134	0.16674	0.97785	-0.27097	0.20297	0.84815	-0.28283	0.13272	0.85967	-0.29348	0.16752	0.81214	-0.33057	0.31183	1.3222	0.21235	0.32247	1.1678	0.26516	0.36218	1.0282	0.28476	0.46099	0.94993	0.28825	0.5465	0.87734	0.22106	0.50825	0.84052	0.26886	0.58528	0.83391	0.25744	0.37697	0.89352	-0.095514	0.38355	0.89015	0.1127	0.18924	0.92982	0.054966	0.18821	0.92766	-0.018231	0.38856	0.61991	-0.16504	0.37902	0.5757	-0.15674	0.44975	0.46504	-0.12817	0.43934	0.45327	-0.00042816	0.49901	0.40865	-0.12383	0.42832	0.38243	-0.14084	0.47884	0.35894	-0.14828	0.58414	0.12086	-0.04218	0.52804	0.041822	-0.071573	0.69941	0.12041	-0.055787	0.65162	0.063837	-0.13684	0.28409	0.61135	0.16773	0.22997	0.62304	0.19055	0.24174	0.57275	0.17366	0.1798	0.4469	0.15322	0.1915	0.44441	0.026348	0.12583	0.29574	0.16848	0.076189	0.31843	0.17148	0.078937	0.26438	0.16794	0.018971	0.10764	0.13376	-0.06418	0.074885	0.080942	0.12025	0.049822	0.064534	0.055849	0.035543	0.14761	0.33439	0.031978	-0.54825	-0.29168	0.024514	-0.53462	-0.24623	0.025749	0.53964	0.2617	0.033681	0.53841
7	0.03	0.25541	1.3791	0.040647	0.37628	1.3055	0.014737	0.29747	1.3278	-0.15884	0.19605	1.1981	-0.18882	0.1732	1.0789	-0.22258	0.17181	0.9774	-0.27239	0.20726	0.8474	-0.28423	0.13717	0.85956	-0.29515	0.17163	0.81161	-0.33208	0.31759	1.3218	0.21115	0.32819	1.1673	0.26397	0.36776	1.0277	0.28356	0.46693	0.94981	0.28711	0.553	0.87791	0.21995	0.51475	0.84067	0.26746	0.59188	0.83461	0.25628	0.38364	0.89292	-0.095905	0.38967	0.88975	0.11233	0.19501	0.92889	0.053849	0.19459	0.92709	-0.0193	0.39654	0.61994	-0.16513	0.38708	0.57566	-0.15687	0.45691	0.46442	-0.12738	0.44761	0.45337	0.00036342	0.50536	0.40741	-0.12305	0.43438	0.38224	-0.14012	0.48457	0.35793	-0.14749	0.58734	0.11868	-0.041538	0.52956	0.042266	-0.071214	0.70276	0.11634	-0.055303	0.65365	0.061132	-0.13646	0.2897	0.61072	0.16749	0.23563	0.62251	0.19011	0.24742	0.57215	0.1733	0.18528	0.44647	0.15283	0.19711	0.44379	0.025963	0.12968	0.29594	0.16832	0.080351	0.31927	0.17137	0.082381	0.26513	0.16787	0.020387	0.10901	0.13417	-0.063067	0.077371	0.081291	0.12089	0.049791	0.06475	0.05641	0.036086	0.14777	0.3398	0.031876	-0.54824	-0.28625	0.024547	-0.53463	-0.24077	0.025763	0.53965	0.26716	0.033725	0.53835
8	0.035	0.26121	1.3785	0.039396	0.38234	1.305	0.01358	0.30341	1.3271	-0.15995	0.20194	1.1974	-0.18994	0.17883	1.0784	-0.22379	0.17706	0.97704	-0.27381	0.2119	0.8468	-0.28562	0.14185	0.85942	-0.29671	0.17601	0.81114	-0.33361	0.32329	1.3216	0.20991	0.3339	1.1669	0.2628	0.37326	1.0273	0.28239	0.47273	0.9497	0.28597	0.55935	0.8785	0.21886	0.52115	0.84083	0.26609	0.59835	0.8353	0.25517	0.39026	0.8924	-0.096314	0.39587	0.88941	0.11189	0.20131	0.92877	0.052415	0.20097	0.92655	-0.020384	0.40438	0.62003	-0.16514	0.39506	0.57572	-0.15694	0.46393	0.46382	-0.12669	0.45588	0.45342	0.0010382	0.51159	0.4063	-0.12243	0.44032	0.38207	-0.13954	0.49017	0.35705	-0.14672	0.59047	0.11701	-0.040954	0.5311	0.042901	-0.070764	0.70595	0.11237	-0.054646	0.65552	0.058706	-0.13592	0.29548	0.61014	0.16707	0.24135	0.62202	0.1896	0.25318	0.57161	0.17289	0.19091	0.44609	0.15243	0.20293	0.44316	0.025676	0.13366	0.29623	0.16821	0.084584	0.32012	0.17125	0.085976	0.26597	0.16779	0.021989	0.11045	0.13454	-0.061907	0.080154	0.081695	0.1216	0.04974	0.065002	0.057141	0.036681	0.14776	0.34533	0.031995	-0.54822	-0.28082	0.024529	-0.53471	-0.23531	0.025719	0.5396	0.27261	0.033679	0.53832
9	0.04	0.26695	1.378	0.038026	0.38846	1.3046	0.012376	0.30935	1.3265	-0.16109	0.20777	1.1967	-0.19106	0.18466	1.0778	-0.22461	0.18236	0.97666	-0.27521	0.21664	0.84611	-0.28699	0.14672	0.85932	-0.29837	0.18065	0.81074	-0.33514	0.32896	1.3214	0.20869	0.33957	1.1666	0.26163	0.37869	1.0269	0.28115	0.47845	0.94965	0.28486	0.56557	0.87908	0.21778	0.52742	0.84103	0.26476	0.60467	0.83601	0.25407	0.39691	0.89194	-0.096744	0.40206	0.88912	0.11147	0.20842	0.92827	0.051561	0.20744	0.92621	-0.021521	0.41215	0.62027	-0.16515	0.40295	0.5759	-0.15695	0.47079	0.46332	-0.1261	0.464	0.45347	0.0014998	0.51769	0.40542	-0.12201	0.44618	0.38189	-0.13899	0.49565	0.35626	-0.14604	0.59356	0.11555	-0.04037	0.53265	0.043539	-0.070412	0.70897	0.10831	-0.053728	0.6574	0.056406	-0.13529	0.30138	0.60964	0.16652	0.24718	0.62162	0.18907	0.25903	0.57113	0.17246	0.19662	0.44572	0.15202	0.20885	0.4426	0.025276	0.13774	0.29658	0.16808	0.088933	0.3211	0.17115	0.08965	0.26693	0.16773	0.023664	0.11207	0.13497	-0.060597	0.083143	0.08202	0.12235	0.049657	0.065281	0.057887	0.037325	0.1478	0.35082	0.032124	-0.54825	-0.2753	0.024534	-0.53465	-0.22986	0.025779	0.53963	0.27809	0.033597	0.53829
